<mxfile host="Electron" agent="Mozilla/5.0 (Windows NT 10.0; Win64; x64) AppleWebKit/537.36 (KHTML, like Gecko) draw.io/28.0.6 Chrome/138.0.7204.100 Electron/37.2.3 Safari/537.36" version="28.0.6">
  <diagram name="Page-1" id="WnifTbYJU7ucQwGBGh6u">
    <mxGraphModel dx="1426" dy="849" grid="1" gridSize="10" guides="1" tooltips="1" connect="1" arrows="1" fold="1" page="1" pageScale="1" pageWidth="827" pageHeight="1169" math="0" shadow="0">
      <root>
        <mxCell id="0" />
        <mxCell id="1" parent="0" />
        <mxCell id="I14c-RaFfCN76PRvXbBz-1" value="staff" style="rounded=0;whiteSpace=wrap;html=1;" parent="1" vertex="1">
          <mxGeometry x="135" y="310" width="120" height="60" as="geometry" />
        </mxCell>
        <mxCell id="I14c-RaFfCN76PRvXbBz-9" style="rounded=0;orthogonalLoop=1;jettySize=auto;html=1;endArrow=none;endFill=0;" parent="1" source="I14c-RaFfCN76PRvXbBz-2" target="I14c-RaFfCN76PRvXbBz-1" edge="1">
          <mxGeometry relative="1" as="geometry" />
        </mxCell>
        <mxCell id="I14c-RaFfCN76PRvXbBz-2" value="&lt;u&gt;id_staff&lt;/u&gt;" style="ellipse;whiteSpace=wrap;html=1;" parent="1" vertex="1">
          <mxGeometry x="120" y="80" width="120" height="80" as="geometry" />
        </mxCell>
        <mxCell id="I14c-RaFfCN76PRvXbBz-7" style="edgeStyle=orthogonalEdgeStyle;rounded=0;orthogonalLoop=1;jettySize=auto;html=1;entryX=0;entryY=0.5;entryDx=0;entryDy=0;curved=1;strokeColor=none;" parent="1" source="I14c-RaFfCN76PRvXbBz-3" target="I14c-RaFfCN76PRvXbBz-1" edge="1">
          <mxGeometry relative="1" as="geometry" />
        </mxCell>
        <mxCell id="I14c-RaFfCN76PRvXbBz-3" value="nama_staff" style="ellipse;whiteSpace=wrap;html=1;" parent="1" vertex="1">
          <mxGeometry y="220" width="120" height="80" as="geometry" />
        </mxCell>
        <mxCell id="I14c-RaFfCN76PRvXbBz-10" style="rounded=0;orthogonalLoop=1;jettySize=auto;html=1;entryX=0.63;entryY=-0.005;entryDx=0;entryDy=0;endArrow=none;endFill=0;entryPerimeter=0;" parent="1" source="I14c-RaFfCN76PRvXbBz-4" target="I14c-RaFfCN76PRvXbBz-1" edge="1">
          <mxGeometry relative="1" as="geometry" />
        </mxCell>
        <mxCell id="I14c-RaFfCN76PRvXbBz-4" value="jenkel_staff" style="ellipse;whiteSpace=wrap;html=1;" parent="1" vertex="1">
          <mxGeometry x="250" y="110" width="120" height="80" as="geometry" />
        </mxCell>
        <mxCell id="I14c-RaFfCN76PRvXbBz-5" value="tipetreatment" style="rounded=0;whiteSpace=wrap;html=1;" parent="1" vertex="1">
          <mxGeometry x="870" y="560" width="120" height="60" as="geometry" />
        </mxCell>
        <mxCell id="I14c-RaFfCN76PRvXbBz-6" value="treatment" style="rounded=0;whiteSpace=wrap;html=1;" parent="1" vertex="1">
          <mxGeometry x="550" y="680" width="120" height="60" as="geometry" />
        </mxCell>
        <mxCell id="I14c-RaFfCN76PRvXbBz-13" style="rounded=0;orthogonalLoop=1;jettySize=auto;html=1;endArrow=none;endFill=0;" parent="1" source="I14c-RaFfCN76PRvXbBz-11" target="I14c-RaFfCN76PRvXbBz-1" edge="1">
          <mxGeometry relative="1" as="geometry" />
        </mxCell>
        <mxCell id="I14c-RaFfCN76PRvXbBz-11" value="no_hp_staff" style="ellipse;whiteSpace=wrap;html=1;" parent="1" vertex="1">
          <mxGeometry x="10" y="320" width="120" height="80" as="geometry" />
        </mxCell>
        <mxCell id="I14c-RaFfCN76PRvXbBz-14" style="rounded=0;orthogonalLoop=1;jettySize=auto;html=1;entryX=0;entryY=0.167;entryDx=0;entryDy=0;entryPerimeter=0;endArrow=none;endFill=0;" parent="1" source="I14c-RaFfCN76PRvXbBz-3" target="I14c-RaFfCN76PRvXbBz-1" edge="1">
          <mxGeometry relative="1" as="geometry" />
        </mxCell>
        <mxCell id="I14c-RaFfCN76PRvXbBz-15" value="alamat_staff" style="ellipse;whiteSpace=wrap;html=1;" parent="1" vertex="1">
          <mxGeometry x="294" y="200" width="120" height="80" as="geometry" />
        </mxCell>
        <mxCell id="I14c-RaFfCN76PRvXbBz-16" value="gaji_staff" style="ellipse;whiteSpace=wrap;html=1;" parent="1" vertex="1">
          <mxGeometry x="10" y="130" width="120" height="80" as="geometry" />
        </mxCell>
        <mxCell id="I14c-RaFfCN76PRvXbBz-17" value="jabatan_staff" style="ellipse;whiteSpace=wrap;html=1;" parent="1" vertex="1">
          <mxGeometry x="10" y="410" width="120" height="80" as="geometry" />
        </mxCell>
        <mxCell id="I14c-RaFfCN76PRvXbBz-18" style="rounded=0;orthogonalLoop=1;jettySize=auto;html=1;entryX=0.093;entryY=1.007;entryDx=0;entryDy=0;entryPerimeter=0;endArrow=none;endFill=0;" parent="1" source="I14c-RaFfCN76PRvXbBz-17" target="I14c-RaFfCN76PRvXbBz-1" edge="1">
          <mxGeometry relative="1" as="geometry" />
        </mxCell>
        <mxCell id="I14c-RaFfCN76PRvXbBz-19" style="rounded=0;orthogonalLoop=1;jettySize=auto;html=1;endArrow=none;endFill=0;" parent="1" source="I14c-RaFfCN76PRvXbBz-16" target="I14c-RaFfCN76PRvXbBz-1" edge="1">
          <mxGeometry relative="1" as="geometry" />
        </mxCell>
        <mxCell id="I14c-RaFfCN76PRvXbBz-20" style="rounded=0;orthogonalLoop=1;jettySize=auto;html=1;entryX=0.75;entryY=0;entryDx=0;entryDy=0;endArrow=none;endFill=0;" parent="1" source="I14c-RaFfCN76PRvXbBz-15" target="I14c-RaFfCN76PRvXbBz-1" edge="1">
          <mxGeometry relative="1" as="geometry" />
        </mxCell>
        <mxCell id="I14c-RaFfCN76PRvXbBz-21" value="customer" style="rounded=0;whiteSpace=wrap;html=1;" parent="1" vertex="1">
          <mxGeometry x="440" y="310" width="120" height="60" as="geometry" />
        </mxCell>
        <mxCell id="I14c-RaFfCN76PRvXbBz-22" value="&lt;u&gt;id_cust&lt;/u&gt;" style="ellipse;whiteSpace=wrap;html=1;" parent="1" vertex="1">
          <mxGeometry x="414" y="150" width="120" height="80" as="geometry" />
        </mxCell>
        <mxCell id="I14c-RaFfCN76PRvXbBz-23" value="nama_cust" style="ellipse;whiteSpace=wrap;html=1;" parent="1" vertex="1">
          <mxGeometry x="530" y="110" width="120" height="80" as="geometry" />
        </mxCell>
        <mxCell id="I14c-RaFfCN76PRvXbBz-24" value="jenkel_cust" style="ellipse;whiteSpace=wrap;html=1;" parent="1" vertex="1">
          <mxGeometry x="660" y="140" width="120" height="80" as="geometry" />
        </mxCell>
        <mxCell id="I14c-RaFfCN76PRvXbBz-26" value="alamat_cust" style="ellipse;whiteSpace=wrap;html=1;" parent="1" vertex="1">
          <mxGeometry x="700" y="320" width="120" height="80" as="geometry" />
        </mxCell>
        <mxCell id="I14c-RaFfCN76PRvXbBz-27" value="no_hp_cust" style="ellipse;whiteSpace=wrap;html=1;" parent="1" vertex="1">
          <mxGeometry x="680" y="230" width="120" height="80" as="geometry" />
        </mxCell>
        <mxCell id="I14c-RaFfCN76PRvXbBz-28" value="Hservis_salon" style="rounded=0;whiteSpace=wrap;html=1;" parent="1" vertex="1">
          <mxGeometry x="140" y="680" width="120" height="60" as="geometry" />
        </mxCell>
        <mxCell id="I14c-RaFfCN76PRvXbBz-29" value="&lt;u&gt;id_transaksi&lt;/u&gt;" style="ellipse;whiteSpace=wrap;html=1;" parent="1" vertex="1">
          <mxGeometry x="10" y="585" width="120" height="80" as="geometry" />
        </mxCell>
        <mxCell id="I14c-RaFfCN76PRvXbBz-30" value="tgl_transaksi" style="ellipse;whiteSpace=wrap;html=1;" parent="1" vertex="1">
          <mxGeometry x="70" y="770" width="120" height="80" as="geometry" />
        </mxCell>
        <mxCell id="I14c-RaFfCN76PRvXbBz-31" value="tipe_pembyaran" style="ellipse;whiteSpace=wrap;html=1;" parent="1" vertex="1">
          <mxGeometry y="690" width="120" height="80" as="geometry" />
        </mxCell>
        <mxCell id="I14c-RaFfCN76PRvXbBz-32" value="" style="endArrow=none;html=1;rounded=0;entryX=0.5;entryY=1;entryDx=0;entryDy=0;" parent="1" target="I14c-RaFfCN76PRvXbBz-22" edge="1">
          <mxGeometry width="50" height="50" relative="1" as="geometry">
            <mxPoint x="500" y="310" as="sourcePoint" />
            <mxPoint x="550" y="250" as="targetPoint" />
          </mxGeometry>
        </mxCell>
        <mxCell id="I14c-RaFfCN76PRvXbBz-33" value="" style="endArrow=none;html=1;rounded=0;entryX=0.5;entryY=1;entryDx=0;entryDy=0;exitX=0.5;exitY=0;exitDx=0;exitDy=0;" parent="1" source="I14c-RaFfCN76PRvXbBz-21" target="I14c-RaFfCN76PRvXbBz-23" edge="1">
          <mxGeometry width="50" height="50" relative="1" as="geometry">
            <mxPoint x="430" y="300" as="sourcePoint" />
            <mxPoint x="480" y="250" as="targetPoint" />
          </mxGeometry>
        </mxCell>
        <mxCell id="I14c-RaFfCN76PRvXbBz-35" value="" style="endArrow=none;html=1;rounded=0;entryX=0.23;entryY=0.915;entryDx=0;entryDy=0;entryPerimeter=0;" parent="1" target="I14c-RaFfCN76PRvXbBz-24" edge="1">
          <mxGeometry width="50" height="50" relative="1" as="geometry">
            <mxPoint x="500" y="310" as="sourcePoint" />
            <mxPoint x="740" y="250" as="targetPoint" />
          </mxGeometry>
        </mxCell>
        <mxCell id="I14c-RaFfCN76PRvXbBz-36" value="" style="endArrow=none;html=1;rounded=0;entryX=0.044;entryY=0.695;entryDx=0;entryDy=0;entryPerimeter=0;exitX=0.887;exitY=-0.003;exitDx=0;exitDy=0;exitPerimeter=0;" parent="1" source="I14c-RaFfCN76PRvXbBz-21" target="I14c-RaFfCN76PRvXbBz-27" edge="1">
          <mxGeometry width="50" height="50" relative="1" as="geometry">
            <mxPoint x="620" y="350" as="sourcePoint" />
            <mxPoint x="670" y="300" as="targetPoint" />
          </mxGeometry>
        </mxCell>
        <mxCell id="I14c-RaFfCN76PRvXbBz-37" value="" style="endArrow=none;html=1;rounded=0;entryX=-0.003;entryY=0.579;entryDx=0;entryDy=0;entryPerimeter=0;exitX=1.003;exitY=0.428;exitDx=0;exitDy=0;exitPerimeter=0;" parent="1" source="I14c-RaFfCN76PRvXbBz-21" target="I14c-RaFfCN76PRvXbBz-26" edge="1">
          <mxGeometry width="50" height="50" relative="1" as="geometry">
            <mxPoint x="620" y="330" as="sourcePoint" />
            <mxPoint x="670" y="280" as="targetPoint" />
          </mxGeometry>
        </mxCell>
        <mxCell id="I14c-RaFfCN76PRvXbBz-38" value="" style="endArrow=none;html=1;rounded=0;exitX=0.631;exitY=0.02;exitDx=0;exitDy=0;exitPerimeter=0;entryX=0.17;entryY=1.004;entryDx=0;entryDy=0;entryPerimeter=0;" parent="1" source="I14c-RaFfCN76PRvXbBz-30" target="I14c-RaFfCN76PRvXbBz-28" edge="1">
          <mxGeometry width="50" height="50" relative="1" as="geometry">
            <mxPoint x="240" y="750" as="sourcePoint" />
            <mxPoint x="290" y="700" as="targetPoint" />
          </mxGeometry>
        </mxCell>
        <mxCell id="I14c-RaFfCN76PRvXbBz-39" value="" style="endArrow=none;html=1;rounded=0;exitX=0;exitY=0.777;exitDx=0;exitDy=0;exitPerimeter=0;entryX=1.001;entryY=0.488;entryDx=0;entryDy=0;entryPerimeter=0;" parent="1" source="I14c-RaFfCN76PRvXbBz-28" target="I14c-RaFfCN76PRvXbBz-31" edge="1">
          <mxGeometry width="50" height="50" relative="1" as="geometry">
            <mxPoint x="160" y="792" as="sourcePoint" />
            <mxPoint x="174" y="760" as="targetPoint" />
          </mxGeometry>
        </mxCell>
        <mxCell id="I14c-RaFfCN76PRvXbBz-40" value="" style="endArrow=none;html=1;rounded=0;exitX=-0.004;exitY=0.043;exitDx=0;exitDy=0;exitPerimeter=0;entryX=0.825;entryY=0.876;entryDx=0;entryDy=0;entryPerimeter=0;" parent="1" source="I14c-RaFfCN76PRvXbBz-28" target="I14c-RaFfCN76PRvXbBz-29" edge="1">
          <mxGeometry width="50" height="50" relative="1" as="geometry">
            <mxPoint x="110" y="692" as="sourcePoint" />
            <mxPoint x="124" y="660" as="targetPoint" />
          </mxGeometry>
        </mxCell>
        <mxCell id="I14c-RaFfCN76PRvXbBz-41" value="&lt;u&gt;id_treatment&lt;/u&gt;" style="ellipse;whiteSpace=wrap;html=1;" parent="1" vertex="1">
          <mxGeometry x="490" y="800" width="120" height="80" as="geometry" />
        </mxCell>
        <mxCell id="I14c-RaFfCN76PRvXbBz-42" value="nama_treatment" style="ellipse;whiteSpace=wrap;html=1;" parent="1" vertex="1">
          <mxGeometry x="740" y="760" width="120" height="80" as="geometry" />
        </mxCell>
        <mxCell id="I14c-RaFfCN76PRvXbBz-43" value="harga" style="ellipse;whiteSpace=wrap;html=1;" parent="1" vertex="1">
          <mxGeometry x="620" y="800" width="120" height="80" as="geometry" />
        </mxCell>
        <mxCell id="I14c-RaFfCN76PRvXbBz-44" value="&lt;u&gt;id_tipetreatment&lt;/u&gt;" style="ellipse;whiteSpace=wrap;html=1;" parent="1" vertex="1">
          <mxGeometry x="1020" y="530" width="120" height="80" as="geometry" />
        </mxCell>
        <mxCell id="I14c-RaFfCN76PRvXbBz-45" value="nama_tipetreatment" style="ellipse;whiteSpace=wrap;html=1;" parent="1" vertex="1">
          <mxGeometry x="940" y="680" width="120" height="80" as="geometry" />
        </mxCell>
        <mxCell id="I14c-RaFfCN76PRvXbBz-46" value="" style="endArrow=none;html=1;rounded=0;exitX=0.595;exitY=0;exitDx=0;exitDy=0;exitPerimeter=0;entryX=0.167;entryY=1;entryDx=0;entryDy=0;entryPerimeter=0;" parent="1" source="I14c-RaFfCN76PRvXbBz-41" target="I14c-RaFfCN76PRvXbBz-6" edge="1">
          <mxGeometry width="50" height="50" relative="1" as="geometry">
            <mxPoint x="580" y="700" as="sourcePoint" />
            <mxPoint x="630" y="650" as="targetPoint" />
          </mxGeometry>
        </mxCell>
        <mxCell id="I14c-RaFfCN76PRvXbBz-47" value="" style="endArrow=none;html=1;rounded=0;exitX=0.5;exitY=0;exitDx=0;exitDy=0;entryX=0.398;entryY=1;entryDx=0;entryDy=0;entryPerimeter=0;" parent="1" source="I14c-RaFfCN76PRvXbBz-43" target="I14c-RaFfCN76PRvXbBz-6" edge="1">
          <mxGeometry width="50" height="50" relative="1" as="geometry">
            <mxPoint x="580" y="840" as="sourcePoint" />
            <mxPoint x="629" y="780" as="targetPoint" />
          </mxGeometry>
        </mxCell>
        <mxCell id="I14c-RaFfCN76PRvXbBz-48" value="" style="endArrow=none;html=1;rounded=0;exitX=0.75;exitY=1;exitDx=0;exitDy=0;" parent="1" source="I14c-RaFfCN76PRvXbBz-6" target="I14c-RaFfCN76PRvXbBz-42" edge="1">
          <mxGeometry width="50" height="50" relative="1" as="geometry">
            <mxPoint x="680" y="850" as="sourcePoint" />
            <mxPoint x="729" y="790" as="targetPoint" />
          </mxGeometry>
        </mxCell>
        <mxCell id="I14c-RaFfCN76PRvXbBz-49" value="" style="endArrow=none;html=1;rounded=0;exitX=0.808;exitY=1;exitDx=0;exitDy=0;exitPerimeter=0;entryX=0.339;entryY=0.027;entryDx=0;entryDy=0;entryPerimeter=0;" parent="1" source="I14c-RaFfCN76PRvXbBz-5" target="I14c-RaFfCN76PRvXbBz-45" edge="1">
          <mxGeometry width="50" height="50" relative="1" as="geometry">
            <mxPoint x="970" y="800" as="sourcePoint" />
            <mxPoint x="1019" y="740" as="targetPoint" />
          </mxGeometry>
        </mxCell>
        <mxCell id="I14c-RaFfCN76PRvXbBz-50" value="" style="endArrow=none;html=1;rounded=0;exitX=1;exitY=0.75;exitDx=0;exitDy=0;entryX=0.132;entryY=0.84;entryDx=0;entryDy=0;entryPerimeter=0;" parent="1" source="I14c-RaFfCN76PRvXbBz-5" target="I14c-RaFfCN76PRvXbBz-44" edge="1">
          <mxGeometry width="50" height="50" relative="1" as="geometry">
            <mxPoint x="1000" y="720" as="sourcePoint" />
            <mxPoint x="1049" y="660" as="targetPoint" />
          </mxGeometry>
        </mxCell>
        <mxCell id="bgQ0iSFNifUxIjFPev9g-1" value="melakukan" style="rhombus;whiteSpace=wrap;html=1;" parent="1" vertex="1">
          <mxGeometry x="370" y="480" width="110" height="80" as="geometry" />
        </mxCell>
        <mxCell id="bgQ0iSFNifUxIjFPev9g-2" value="1" style="text;html=1;align=center;verticalAlign=middle;whiteSpace=wrap;rounded=0;" parent="1" vertex="1">
          <mxGeometry x="430" y="470" width="60" height="30" as="geometry" />
        </mxCell>
        <mxCell id="bgQ0iSFNifUxIjFPev9g-3" value="n" style="text;html=1;align=center;verticalAlign=middle;whiteSpace=wrap;rounded=0;" parent="1" vertex="1">
          <mxGeometry x="430" y="540" width="60" height="30" as="geometry" />
        </mxCell>
        <mxCell id="bgQ0iSFNifUxIjFPev9g-5" value="" style="endArrow=none;html=1;rounded=0;entryX=0.5;entryY=1;entryDx=0;entryDy=0;exitX=0.167;exitY=0.667;exitDx=0;exitDy=0;exitPerimeter=0;" parent="1" source="bgQ0iSFNifUxIjFPev9g-2" target="I14c-RaFfCN76PRvXbBz-21" edge="1">
          <mxGeometry width="50" height="50" relative="1" as="geometry">
            <mxPoint x="580" y="430" as="sourcePoint" />
            <mxPoint x="670" y="400" as="targetPoint" />
          </mxGeometry>
        </mxCell>
        <mxCell id="bgQ0iSFNifUxIjFPev9g-6" value="" style="endArrow=none;html=1;rounded=0;entryX=0.183;entryY=0.695;entryDx=0;entryDy=0;entryPerimeter=0;" parent="1" target="bgQ0iSFNifUxIjFPev9g-1" edge="1">
          <mxGeometry width="50" height="50" relative="1" as="geometry">
            <mxPoint x="200" y="680" as="sourcePoint" />
            <mxPoint x="630" y="600" as="targetPoint" />
          </mxGeometry>
        </mxCell>
        <mxCell id="bgQ0iSFNifUxIjFPev9g-7" value="memiliki" style="rhombus;whiteSpace=wrap;html=1;" parent="1" vertex="1">
          <mxGeometry x="717" y="550" width="110" height="80" as="geometry" />
        </mxCell>
        <mxCell id="bgQ0iSFNifUxIjFPev9g-9" value="n" style="text;html=1;align=center;verticalAlign=middle;whiteSpace=wrap;rounded=0;" parent="1" vertex="1">
          <mxGeometry x="690" y="600" width="60" height="30" as="geometry" />
        </mxCell>
        <mxCell id="bgQ0iSFNifUxIjFPev9g-10" value="1" style="text;html=1;align=center;verticalAlign=middle;whiteSpace=wrap;rounded=0;" parent="1" vertex="1">
          <mxGeometry x="800" y="600" width="60" height="30" as="geometry" />
        </mxCell>
        <mxCell id="bgQ0iSFNifUxIjFPev9g-11" value="" style="endArrow=none;html=1;rounded=0;exitX=1;exitY=0.5;exitDx=0;exitDy=0;entryX=0.293;entryY=0.8;entryDx=0;entryDy=0;entryPerimeter=0;" parent="1" source="I14c-RaFfCN76PRvXbBz-6" target="bgQ0iSFNifUxIjFPev9g-7" edge="1">
          <mxGeometry width="50" height="50" relative="1" as="geometry">
            <mxPoint x="650" y="660" as="sourcePoint" />
            <mxPoint x="700" y="610" as="targetPoint" />
          </mxGeometry>
        </mxCell>
        <mxCell id="bgQ0iSFNifUxIjFPev9g-12" value="" style="endArrow=none;html=1;rounded=0;entryX=0;entryY=0.5;entryDx=0;entryDy=0;exitX=1;exitY=0.5;exitDx=0;exitDy=0;" parent="1" source="bgQ0iSFNifUxIjFPev9g-7" target="I14c-RaFfCN76PRvXbBz-5" edge="1">
          <mxGeometry width="50" height="50" relative="1" as="geometry">
            <mxPoint x="790" y="670" as="sourcePoint" />
            <mxPoint x="840" y="620" as="targetPoint" />
          </mxGeometry>
        </mxCell>
        <mxCell id="bgQ0iSFNifUxIjFPev9g-13" value="" style="endArrow=none;html=1;rounded=0;entryX=1;entryY=0.5;entryDx=0;entryDy=0;exitX=0;exitY=0.5;exitDx=0;exitDy=0;" parent="1" source="bgQ0iSFNifUxIjFPev9g-14" target="I14c-RaFfCN76PRvXbBz-28" edge="1">
          <mxGeometry width="50" height="50" relative="1" as="geometry">
            <mxPoint x="360" y="680" as="sourcePoint" />
            <mxPoint x="540" y="500" as="targetPoint" />
          </mxGeometry>
        </mxCell>
        <mxCell id="bgQ0iSFNifUxIjFPev9g-14" value="transaksi" style="rhombus;whiteSpace=wrap;html=1;" parent="1" vertex="1">
          <mxGeometry x="350" y="670" width="110" height="80" as="geometry" />
        </mxCell>
        <mxCell id="bgQ0iSFNifUxIjFPev9g-15" value="n" style="text;html=1;align=center;verticalAlign=middle;whiteSpace=wrap;rounded=0;" parent="1" vertex="1">
          <mxGeometry x="324" y="680" width="60" height="30" as="geometry" />
        </mxCell>
        <mxCell id="bgQ0iSFNifUxIjFPev9g-16" value="" style="endArrow=none;html=1;rounded=0;exitX=1;exitY=0.5;exitDx=0;exitDy=0;" parent="1" source="bgQ0iSFNifUxIjFPev9g-14" target="I14c-RaFfCN76PRvXbBz-6" edge="1">
          <mxGeometry width="50" height="50" relative="1" as="geometry">
            <mxPoint x="440" y="650" as="sourcePoint" />
            <mxPoint x="490" y="600" as="targetPoint" />
          </mxGeometry>
        </mxCell>
        <mxCell id="bgQ0iSFNifUxIjFPev9g-17" value="n" style="text;html=1;align=center;verticalAlign=middle;whiteSpace=wrap;rounded=0;" parent="1" vertex="1">
          <mxGeometry x="430" y="680" width="60" height="30" as="geometry" />
        </mxCell>
        <mxCell id="bgQ0iSFNifUxIjFPev9g-19" value="mengatur" style="rhombus;whiteSpace=wrap;html=1;" parent="1" vertex="1">
          <mxGeometry x="145" y="480" width="110" height="80" as="geometry" />
        </mxCell>
        <mxCell id="bgQ0iSFNifUxIjFPev9g-20" value="" style="endArrow=none;html=1;rounded=0;entryX=0.532;entryY=0.974;entryDx=0;entryDy=0;entryPerimeter=0;exitX=0.5;exitY=0;exitDx=0;exitDy=0;" parent="1" source="bgQ0iSFNifUxIjFPev9g-19" target="I14c-RaFfCN76PRvXbBz-1" edge="1">
          <mxGeometry width="50" height="50" relative="1" as="geometry">
            <mxPoint x="400" y="580" as="sourcePoint" />
            <mxPoint x="450" y="530" as="targetPoint" />
          </mxGeometry>
        </mxCell>
        <mxCell id="bgQ0iSFNifUxIjFPev9g-21" value="" style="endArrow=none;html=1;rounded=0;entryX=0.5;entryY=1;entryDx=0;entryDy=0;exitX=0.5;exitY=0;exitDx=0;exitDy=0;" parent="1" source="I14c-RaFfCN76PRvXbBz-28" target="bgQ0iSFNifUxIjFPev9g-19" edge="1">
          <mxGeometry width="50" height="50" relative="1" as="geometry">
            <mxPoint x="270" y="687" as="sourcePoint" />
            <mxPoint x="294" y="580" as="targetPoint" />
          </mxGeometry>
        </mxCell>
        <mxCell id="bgQ0iSFNifUxIjFPev9g-22" value="1" style="text;html=1;align=center;verticalAlign=middle;whiteSpace=wrap;rounded=0;" parent="1" vertex="1">
          <mxGeometry x="195" y="470" width="60" height="30" as="geometry" />
        </mxCell>
        <mxCell id="bgQ0iSFNifUxIjFPev9g-23" value="n" style="text;html=1;align=center;verticalAlign=middle;whiteSpace=wrap;rounded=0;" parent="1" vertex="1">
          <mxGeometry x="200" y="540" width="60" height="30" as="geometry" />
        </mxCell>
      </root>
    </mxGraphModel>
  </diagram>
</mxfile>
